<?xml version="1.0" encoding="UTF-8"?>
<svg width="537px" height="163px" viewBox="0 0 537 163" version="1.1" xmlns="http://www.w3.org/2000/svg" xmlns:xlink="http://www.w3.org/1999/xlink">
    <title>F475C9F9-6D2E-4C87-8DF2-97BD3002F2EB</title>
    <g id="Pact" stroke="none" stroke-width="1" fill="none" fill-rule="evenodd">
        <g id="pact_home_desktop" transform="translate(-212.000000, -402.000000)" fill="#FF9500">
            <g id="Group-3" transform="translate(212.000000, 402.000000)">
                <path d="M213.921502,41 C226.881434,41 239.60896,45.6816737 247.061159,55.7376522 L247.368601,56.1597633 L249.996587,43.887574 L293,43.887574 L267.43686,160.112426 L224.433447,160.112426 L227.300341,147.840237 C217.266212,158.90927 207.948805,163 196.003413,163 C170.201365,163 153,145.915187 153,114.633136 C153,82.3885602 172.829352,41 213.921502,41 Z M352.001988,41 C378.463221,41 395.06163,52.0690335 403,65.0631164 L403,65.0631164 L370.765408,89.8481262 C367.397614,84.0729783 360.662028,79.260355 351.520875,79.260355 C336.606362,79.260355 325.781312,90.5700197 325.781312,106.211045 C325.781312,117.52071 335.644135,124.739645 347.190855,124.739645 C355.129225,124.739645 362.105368,120.648915 366.675944,115.35503 L366.675944,115.35503 L389.769384,143.990138 C382.071571,152.412229 365.473161,163 342.860835,163 C304.852883,163 282,139.899408 282,109.098619 C282,70.8382643 312.550696,41 352.001988,41 Z M513.883178,111 C526.752336,111 537,121.883721 537,134.944186 C537,150.181395 524.130841,163 509.116822,163 C496.247664,163 486,152.116279 486,139.055814 C486,123.818605 498.869159,111 513.883178,111 Z M477.496183,12 L470.559796,43.5789474 L494,43.5789474 L485.628499,80.8995215 L462.188295,80.8995215 L455.969466,109.129187 C455.491094,111.282297 455.251908,113.674641 455.251908,114.631579 C455.251908,120.133971 458.600509,123.961722 466.015267,123.961722 C468.167939,123.961722 471.277354,123.244019 471.994911,122.76555 L471.994911,122.76555 L471.994911,157.215311 C467.450382,160.325359 459.318066,162 451.424936,162 C426.549618,162 408.849873,152.909091 408.849873,132.813397 C408.849873,131.138756 409.089059,127.07177 409.806616,123.722488 L409.806616,123.722488 L419.13486,80.8995215 L400,80.8995215 L408.371501,43.5789474 L427.506361,43.5789474 L434.442748,12 L477.496183,12 Z M115.818705,0 C146.815827,0 167,21.1094453 167,47.2563718 C167,70.292054 151.692107,109.785187 97.5280723,110.572747 L95.8748201,110.584708 L59.3510791,110.584708 L48.5381295,160 L0,160 L35.3223022,0 L115.818705,0 Z M221.566553,79.260355 C207.948805,79.260355 197.43686,90.5700197 197.43686,105.489152 C197.43686,117.039448 206.276451,124.739645 216.549488,124.739645 C223.086876,124.739645 228.711576,121.981833 233.646575,117.139992 L233.989761,116.798817 L240.679181,87.2011834 C236.139932,82.147929 229.211604,79.260355 221.566553,79.260355 Z M102.122302,40.2998501 L74.9697842,40.2998501 L68.7223022,68.3658171 L97.3165468,68.3658171 C109.571223,68.3658171 116.779856,61.8890555 116.779856,52.2938531 C116.779856,44.8575712 111.733813,40.2998501 102.122302,40.2998501 Z" id="Combined-Shape"></path>
            </g>
        </g>
    </g>
</svg>